<?xml version="1.0" encoding="UTF-8" standalone="no"?><svg id="Layer_1" data-name="Layer 1" xmlns="http://www.w3.org/2000/svg" viewBox="0 0 54.37 49.26"><defs><style>.cls-1{fill:#fff;}</style></defs><rect class="cls-1" width="54.37" height="49.26" rx="9.16"/><path d="M27.49,9l-2.26,5H20.47C22.09,10.48,23.7,7,25.32,3.41h4.46c.4.88.81,1.76,1.21,2.65L31.86,8c.29.65.59,1.29.87,1.94L34,12.77c.46,1,.9,2,1.36,3.05.31.68.64,1.34.95,2,.42.92.81,1.85,1.23,2.76s.8,1.75,1.2,2.63l1,2.09L41,28.15c.45,1,.9,2,1.36,3,.28.62.57,1.23.85,1.85.58,1.29,1.15,2.59,1.74,3.89.51,1.13,1,2.26,1.56,3.39s1.12,2.49,1.67,3.74l.42.84H43.45q-2.4-5.38-4.8-10.82H16.28L11.42,44.92H6.6a2.22,2.22,0,0,1,.11-.41L8,41.75,9.69,38l1.57-3.45q1.11-2.45,2.21-4.89c.61-1.34,1.21-2.68,1.81-4s1.24-2.77,1.87-4.14c.36-.8.7-1.61,1.06-2.41l1.29-2.88c.07-.15.15-.3.23-.46h4.82c2,4.22,3.87,8.52,5.84,12.83h-5c-1.09-2.44-2.19-4.88-3.32-7.4l-3.92,8.63H36.73Q32.13,19.42,27.49,9Z"/><path d="M36.56,44.91H31.45l-4.26-9.59h5C33.64,38.49,35.12,41.67,36.56,44.91Z"/></svg>