<?xml version="1.0" encoding="UTF-8" standalone="no"?><svg id="Layer_1" data-name="Layer 1" xmlns="http://www.w3.org/2000/svg" viewBox="0 0 56.29 55"><defs><style>.cls-1{fill:#fff;}</style></defs><g id="Layer_2" data-name="Layer 2"><rect width="56.29" height="55" rx="13.07"/></g><path class="cls-1" d="M28.17,7.85l-3,6.57H19L25.33.52h5.82L32.74,4c.38.83.75,1.66,1.13,2.48L35,9l1.68,3.74c.6,1.33,1.18,2.66,1.78,4,.4.89.84,1.76,1.24,2.65.54,1.19,1.06,2.4,1.6,3.6s1,2.28,1.57,3.42c.42.91.84,1.82,1.25,2.73.56,1.23,1.1,2.47,1.65,3.7s1.17,2.65,1.77,4c.36.81.75,1.61,1.11,2.42l2.27,5.07c.68,1.48,1.37,2.95,2,4.43s1.45,3.26,2.18,4.88c.15.36.33.7.53,1.11H49q-3.14-7-6.27-14.13H13.53L7.18,54.71H.89A3.71,3.71,0,0,1,1,54.18l1.66-3.6c.75-1.65,1.49-3.31,2.23-5s1.37-3,2.06-4.51l2.89-6.39c.78-1.74,1.57-3.48,2.35-5.23l2.44-5.41c.47-1,.93-2.09,1.39-3.13l1.68-3.76c.09-.21.2-.4.3-.61h6.3c2.6,5.52,5.05,11.13,7.62,16.75H25.47l-4.34-9.66L16,34.93H40.23Z"/><path class="cls-1" d="M41.52,54.71H34.85L29.3,42.18h6.57C37.72,46.32,39.64,50.47,41.52,54.71Z"/></svg>