<?xml version="1.0" encoding="UTF-8" standalone="no"?><svg width="56" height="55" viewBox="0 0 56 55" fill="none" xmlns="http://www.w3.org/2000/svg">
<path d="M27.872 7.85152L24.9216 14.423H18.7021C20.8262 9.75936 22.9261 5.15072 25.0349 0.52224H30.8589C31.3858 1.67125 31.9142 2.82325 32.4442 3.97824C32.823 4.8064 33.2002 5.6352 33.5757 6.46464C33.9597 7.30859 34.3407 8.15317 34.7187 8.9984C35.2798 10.246 35.8398 11.494 36.3987 12.7424C36.992 14.0678 37.575 15.3984 38.1747 16.7206C38.5773 17.6077 39.0125 18.48 39.4144 19.367C39.9565 20.5645 40.4755 21.7734 41.0144 22.9722C41.5302 24.1165 42.0602 25.2544 42.5843 26.3949C43.0022 27.3043 43.4259 28.2106 43.8374 29.1226C44.3923 30.3533 44.9382 31.5885 45.4874 32.8218C46.0768 34.1459 46.6618 35.472 47.2563 36.7936C47.6205 37.6013 48.0077 38.3987 48.3712 39.2064C49.1315 40.8966 49.8765 42.5939 50.6419 44.2822C51.3126 45.7632 52.0109 47.232 52.6822 48.7136C53.417 50.336 54.1331 51.9667 54.8627 53.5917C55.0214 53.9456 55.2013 54.2906 55.4003 54.6982H48.7021C46.6217 50.0075 44.5327 45.2979 42.4352 40.5696H13.239L6.88448 54.7136H0.598404C0.647044 54.5216 0.662404 54.3366 0.736644 54.1792C1.28384 52.9766 1.84832 51.7824 2.39488 50.5798C3.1456 48.9286 3.88352 47.2717 4.63104 45.6192C5.312 44.1146 6.00128 42.6112 6.68416 41.1091C7.64928 38.9818 8.61248 36.8533 9.57376 34.7238C10.361 32.9805 11.1456 31.2358 11.9277 29.4899C12.7392 27.686 13.5526 25.8837 14.368 24.0832C14.8358 23.0406 15.2922 21.9936 15.7568 20.9472C16.3149 19.6928 16.8751 18.4397 17.4374 17.1878C17.529 16.983 17.6371 16.7859 17.7395 16.5824H24.032C26.6323 22.0973 29.0835 27.7082 31.6557 33.3331H25.1731C23.7466 30.153 22.3142 26.9594 20.839 23.6691C19.1168 27.4579 17.4291 31.1725 15.719 34.9331H39.9411C35.9283 25.9277 31.9181 16.928 27.872 7.85152Z" fill="white"/>
<path d="M41.2307 54.7098H34.5574L29.0035 42.1843H35.5814C37.4259 46.3174 39.3517 50.473 41.2307 54.7098Z" fill="white"/>
</svg>
